# AST/ASF file generated using VICON BodyLanguage
# -----------------------------------------------
:version 1.10
:name VICON
:units
  mass 1.0
  length 0.45
  angle deg
:documentation
   .ast/.asf automatically generated from VICON data using
   VICON BodyBuilder and BodyLanguage model FoxedUp or BRILLIANT.MOD
:root
   order TX TY TZ RX RY RZ
   axis XYZ
   position 0 0 0  
   orientation 0 0 0 
:bonedata
  begin
     id 1 
     name lhipjoint
     direction 0.682418 -0.694059 0.22932 
     length 2.25561 
     axis 0 0 0  XYZ
  end
  begin
     id 2 
     name lfemur
     direction 0.34202 -0.939693 0  
     length 6.96448  
     axis 0 0 20  XYZ
    dof rx ry rz
    limits (-160.0 20.0)
           (-70.0 70.0)
           (-60.0 70.0)
  end
  begin
     id 3 
     name ltibia
     direction 0.34202 -0.939693 0   
     length 6.88553   
     axis 0 0 20   XYZ
    dof rx
    limits (-10.0 170.0)
  end
  begin
     id 4 
     name lfoot
     direction 0.0723587 -0.198804 0.977364   
     length 1.88518   
     axis -90 7.62852e-016 20   XYZ
    dof rx rz
    limits (-45.0 90.0)
           (-70.0 20.0)
  end
  begin
     id 5 
     name ltoes
     direction 1.53558e-011 -4.21962e-011 1   
     length 0.952124   
     axis -90 7.62852e-016 20   XYZ
    dof rx
    limits (-90.0 20.0)
  end
  begin
     id 6 
     name rhipjoint
     direction -0.657603 -0.71533 0.236348   
     length 2.18854  
     axis 0 0 0  XYZ 
  end
  begin
     id 7 
     name rfemur
     direction -0.34202 -0.939693 0   
     length 6.86686   
     axis 0 0 -20   XYZ
    dof rx ry rz
    limits (-160.0 20.0)
           (-70.0 70.0)
           (-70.0 60.0)
  end
  begin
     id 8 
     name rtibia
     direction -0.34202 -0.939693 0   
     length 6.59503   
     axis 0 0 -20   XYZ
    dof rx
    limits (-10.0 170.0)
 end
 begin
     id 9 
     name rfoot
     direction -0.101977 -0.280179 0.954516   
     length 1.93723  
     axis -90 -7.62852e-016 -20   XYZ
    dof rx rz
    limits (-45.0 90.0)
           (-20.0 70.0)
  end
  begin
     id 10 
     name rtoes
     direction -1.53564e-011 -4.21897e-011 1   
     length 0.970315   
     axis -90 -7.62852e-016 -20   XYZ
    dof rx
    limits (-90.0 20.0)
  end
  begin
     id 11 
     name lowerback
     direction -0.0339559 0.999421 -0.00235966   
     length 1.88543   
     axis 0 0 0   XYZ
    dof rx ry rz
    limits (-20.0 45.0)
           (-30.0 30.0)
           (-30.0 30.0)
  end
  begin
     id 12 
     name upperback
     direction 0.00401003 0.999739 0.0224689   
     length 1.8856   
     axis 0 0 0   XYZ
    dof rx ry rz
    limits (-20.0 45.0)
           (-30.0 30.0)
           (-30.0 30.0)
  end
  begin
     id 13 
     name thorax
     direction 0.0198619 0.999546 0.0226536   
     length 1.88352   
     axis 0 0 0   XYZ
    dof rx ry rz
    limits (-20.0 45.0)
           (-30.0 30.0)
           (-30.0 30.0)
  end
  begin
     id 14 
     name lowerneck
     direction -0.0461848 0.998632 0.0245198   
     length 1.34895   
     axis 0 0 0   XYZ
    dof rx ry rz
    limits (-20.0 45.0)
           (-30.0 30.0)
           (-30.0 30.0)
  end
  begin
     id 15 
     name upperneck
     direction -0.0180627 0.994724 -0.100984   
     length 1.35214   
     axis 0 0 0   XYZ
    dof rx ry rz
    limits (-20.0 45.0)
           (-30.0 30.0)
           (-30.0 30.0)
  end
  begin
     id 16
     name head
     direction -0.00374772 0.999293 -0.037403  
     length 1.3568  
     axis 0 0 0   XYZ
    dof rx ry rz
    limits (-20.0 45.0)
           (-30.0 30.0)
           (-30.0 30.0)
  end
  begin
     id 17 
     name lclavicle
     direction 0.971773 0.191119 0.138311  
     length 2.84954  
     axis 0 0 0   XYZ
    dof ry rz
    limits (-20.0 10.0)
           (0.0 20.0)
  end
  begin
     id 18 
     name lhumerus
     direction 1 -4.4897e-011 -2.43761e-027   
     length 4.40919   
     axis 180 -30 -90   XYZ
    dof rx ry rz
    limits (-60.0 90.0)
           (-90.0 90.0)
           (-90.0 90.0)
  end
  begin
     id 19
     name lradius
     direction 1 -4.4896e-011 -9.1621e-027   
     length 3.03857   
     axis 180 -30 -90   XYZ
    dof rx
    limits (-10.0 170.0)
  end
  begin
     id 20
     name lwrist
     direction 1 -4.4896e-011 -1.41363e-026   
     length 1.51928   
     axis 1.07133e-014 90 90   XYZ
    dof ry
    limits (-180.0 0.0)
 end
  begin
     id 21 
     name lhand
     direction 1 -4.48978e-011 -2.82725e-026   
     length 0.523208   
     axis 1.80403e-014 90 90   XYZ
    dof rx rz
    limits (-90.0 90.0)
           (-45.0 45.0)
  end
  begin
     id 22 
     name lfingers
     direction 1 -4.48977e-011 -5.6545e-026   
     length 0.421824   
     axis 3.60806e-014 90 90   XYZ
    dof rx
    limits (0.0 90.0)
  end
  begin
     id 23
     name lthumb
     direction 0.707107 -6.34962e-011 0.707107   
     length 0.605657   
     axis -90 45 2.85299e-015   XYZ
    dof rx rz
    limits (-45.0 45.0)
           (-45.0 45.0)
  end
  begin
     id 24 
     name rclavicle
     direction -0.957247 0.24311 0.156766   
     length 3.12406  
     axis 0 0 0   XYZ 
    dof ry rz
    limits (-10.0 20.0)
           (-20.0 0.0)
  end
  begin
     id 25 
     name rhumerus
     direction -1 -4.48964e-011 -1.70632e-027  
     length 4.61969   
     axis 180 30 90   XYZ
    dof rx ry rz
    limits (-90.0 60.0)
           (-90.0 90.0)
           (-90.0 90.0)
  end
  begin
     id 26 
     name rradius
     direction -1 -4.48966e-011 -6.60395e-027   
     length 3.09382   
     axis 180 30 90   XYZ
    dof rx
    limits (-10.0 170.0)
  end
  begin
     id 27 
     name rwrist
     direction -1 -4.48963e-011 -1.41363e-026   
     length 1.54691   
     axis 1.07133e-014 -90 -90   XYZ
    dof ry
    limits (-180.0 0.0)
  end
  begin
     id 28
     name rhand
     direction -1 -4.49013e-011 -2.82725e-026   
     length 0.500896   
     axis 1.80403e-014 -90 -90   XYZ
    dof rx rz
    limits (-90.0 90.0)
           (-45.0 45.0)
  end
  begin
     id 29
     name rfingers
     direction -1 -4.48902e-011 -5.6545e-026   
     length 0.403835   
     axis 3.60806e-014 -90 -90   XYZ
    dof rx
    limits (0.0 90.0)
  end
  begin
     id 30
     name rthumb
     direction -0.707107 -6.34953e-011 0.707107   
     length 0.579829   
     axis -90 -45 -2.85299e-015   XYZ
    dof rx rz
    limits (-45.0 45.0)
           (-45.0 45.0)
  end
:hierarchy
  begin
    root lhipjoint rhipjoint lowerback
    lhipjoint lfemur
    lfemur ltibia
    ltibia lfoot
    lfoot ltoes
    rhipjoint rfemur
    rfemur rtibia
    rtibia rfoot
    rfoot rtoes
    lowerback upperback
    upperback thorax
    thorax lowerneck lclavicle rclavicle
    lowerneck upperneck
    upperneck head
    lclavicle lhumerus
    lhumerus lradius
    lradius lwrist
    lwrist lhand lthumb
    lhand lfingers
    rclavicle rhumerus
    rhumerus rradius
    rradius rwrist
    rwrist rhand rthumb
    rhand rfingers
  end

#!OML:ASF E:\madness\Project 1\Capture day 1\Session 1\Female1.ASF
:FULLY-SPECIFIED
:DEGREES
128
root 6.91223 16.3352 -1.49377 6.96909 -37.6819 3.59673
lowerback -6.21855 2.62456 -1.17361
upperback -5.4056 3.48045 -0.490057
thorax -2.13264 1.7462 0.298252
lowerneck 4.13226 12.5511 9.11207
upperneck 12.7058 18.242 -11.0574
head 5.00836 8.98682 -4.03585
rclavicle 4.2192e-014 1.82882e-014
rhumerus -44.0582 -12.4068 -76.0172
rradius 30.8949
rwrist 7.25275
rhand -11.9625 -47.9707
rfingers 7.12502
rthumb 14.0931 -77.4729
lclavicle 4.2192e-014 1.82882e-014
lhumerus -54.1293 14.1586 74.4886
lradius 36.8005
lwrist -14.8548
lhand -21.3748 -13.1493
lfingers 7.12502
lthumb 5.01247 16.7714
rfemur -0.565568 -5.3111 26.9521
rtibia 7.52808
rfoot -30.08 -39.667
rtoes 35.5863
lfemur -22.2217 -15.1686 -12.9276
ltibia 16.7756
lfoot -2.32793 9.5538
ltoes 12.9629
129
root 6.91396 16.3381 -1.44431 6.78232 -37.1149 3.73847
lowerback -6.26622 2.63051 -1.23018
upperback -5.39189 3.49147 -0.564203
thorax -2.09098 1.75221 0.256971
lowerneck 4.34743 12.4646 9.51814
upperneck 12.7604 18.1874 -11.3386
head 5.04634 8.97442 -4.19485
rclavicle -2.30093e-014 1.35174e-014
rhumerus -44.2935 -12.8262 -75.8468
rradius 30.9152
rwrist 7.60847
rhand -11.6588 -47.5914
rfingers 7.12502
rthumb 14.3858 -77.0729
lclavicle -2.30093e-014 1.35174e-014
lhumerus -54.117 14.0582 74.4475
lradius 36.7477
lwrist -15.1154
lhand -21.7253 -13.11
lfingers 7.12502
lthumb 4.67406 16.8184
rfemur -0.490517 -5.84622 26.7355
rtibia 7.94139
rfoot -30.4086 -39.3372
rtoes 35.2735
lfemur -21.9315 -15.545 -13.2007
ltibia 16.4616
lfoot -2.39819 9.29246
ltoes 13.1138
130
root 6.90914 16.3401 -1.39429 6.56136 -36.5911 3.86561
lowerback -6.31504 2.67906 -1.38998
upperback -5.32168 3.5658 -0.590569
thorax -2.00059 1.79377 0.326493
lowerneck 4.51135 12.3393 9.58253
upperneck 12.6504 18.0185 -11.3398
head 4.97237 8.90466 -4.2331
rclavicle -5.87409e-014 -3.37934e-014
rhumerus -44.454 -12.7721 -75.8629
rradius 30.9995
rwrist 7.19339
rhand -11.5637 -47.7687
rfingers 7.12502
rthumb 14.4774 -77.2437
lclavicle -5.87409e-014 -3.37934e-014
lhumerus -53.9583 13.8171 74.6025
lradius 36.7062
lwrist -15.155
lhand -21.7055 -13.3215
lfingers 7.12502
lthumb 4.69312 16.6065
rfemur -0.347752 -6.34065 26.5358
rtibia 8.38355
rfoot -30.6301 -39.0932
rtoes 35.6236
lfemur -21.5181 -16.0273 -13.4297
ltibia 16.1061
lfoot -2.49112 9.12746
ltoes 13.4303
131
root 6.908 16.3427 -1.34519 6.64165 -36.0228 3.86947
lowerback -6.4977 2.59496 -1.48644
upperback -5.33272 3.46149 -0.523008
thorax -1.91942 1.74517 0.453792
lowerneck 4.55471 12.3961 9.21277
upperneck 12.4695 18.0346 -11.0193
head 4.84957 8.91552 -4.09216
rclavicle -1.95057e-014 5.56597e-015
rhumerus -44.4689 -12.715 -75.8064
rradius 30.8966
rwrist 7.28624
rhand -10.9704 -48.1999
rfingers 7.12502
rthumb 15.049 -77.6329
lclavicle -1.95057e-014 5.56597e-015
lhumerus -53.8542 13.9228 74.6897
lradius 36.6798
lwrist -15.0982
lhand -21.5451 -13.4191
lfingers 7.12502
lthumb 4.848 16.5054
rfemur -0.350434 -6.83938 26.4728
rtibia 8.59502
rfoot -30.4143 -38.9276
rtoes 35.8538
lfemur -21.4266 -16.4706 -13.4655
ltibia 15.7992
lfoot -2.48653 8.84639
ltoes 13.0779
132
root 6.91153 16.3473 -1.29537 6.67711 -35.5191 3.80974
lowerback -6.51263 2.55191 -1.38299
upperback -5.36811 3.39957 -0.519805
thorax -1.94053 1.71154 0.396523
lowerneck 4.42171 12.454 9.11321
upperneck 12.5918 18.099 -10.8618
head 4.89294 8.94189 -4.01352
rclavicle -9.05961e-014 -7.15625e-015
rhumerus -44.5493 -13.0034 -75.7009
rradius 30.7777
rwrist 7.78353
rhand -10.0287 -48.4975
rfingers 7.12502
rthumb 15.956 -77.8603
lclavicle -9.05961e-014 -7.15625e-015
lhumerus -53.7477 13.9563 74.6783
lradius 36.5912
lwrist -15.122
lhand -21.4007 -13.5928
lfingers 7.12502
lthumb 4.98746 16.3285
rfemur -0.157222 -7.27715 26.4106
rtibia 8.60079
rfoot -30.0829 -38.7865
rtoes 35.8586
lfemur -21.2967 -16.5885 -13.5843
ltibia 15.5903
lfoot -2.38063 8.34858
ltoes 10.6642
133
root 6.91198 16.3523 -1.24462 6.57014 -35.0527 3.7233
lowerback -6.35977 2.71436 -1.15375
upperback -5.47142 3.60033 -0.715122
thorax -2.10873 1.80279 0.0665872
lowerneck 4.4489 12.2381 9.62362
upperneck 12.9568 17.8472 -10.8234
head 5.01622 8.83681 -4.08676
rclavicle -2.127e-014 -6.75868e-015
rhumerus -45.1161 -13.4527 -75.7285
rradius 30.9241
rwrist 7.604
rhand -9.9693 -48.8826
rfingers 7.12502
rthumb 16.0132 -78.2408
lclavicle -2.127e-014 -6.75868e-015
lhumerus -53.6353 13.4516 74.5513
lradius 36.4156
lwrist -15.4159
lhand -21.1717 -13.6909
lfingers 7.12502
lthumb 5.20855 16.2251
rfemur 0.301794 -7.69102 26.3195
rtibia 8.46875
rfoot -29.9703 -38.5058
rtoes 36.296
lfemur -21.0012 -16.4729 -13.832
ltibia 15.4618
lfoot -2.2732 7.79671
ltoes 7.79936
134
root 6.90965 16.3589 -1.19327 6.59453 -34.5206 3.65845
lowerback -6.38757 3.06382 -0.896838
upperback -5.71986 4.04456 -1.14203
thorax -2.30758 2.00927 -0.501946
lowerneck 4.90036 11.8054 10.4878
upperneck 13.1239 17.2906 -10.5983
head 4.98946 8.6271 -4.21383
rclavicle 3.40046e-014 -5.96354e-015
rhumerus -46.2036 -14.4856 -75.6517
rradius 31.14
rwrist 7.30855
rhand -10.5981 -49.1153
rfingers 7.12502
rthumb 15.4076 -78.5211
lclavicle 3.40046e-014 -5.96354e-015
lhumerus -53.485 11.9697 74.6084
lradius 36.3131
lwrist -15.4214
lhand -21.2659 -13.2654
lfingers 7.12502
lthumb 5.11758 16.6528
rfemur 0.658501 -8.15318 26.2438
rtibia 8.23082
rfoot -29.7271 -38.2969
rtoes 36.5539
lfemur -20.8684 -16.4176 -14.0307
ltibia 15.3484
lfoot -2.31383 7.29497
ltoes 6.32915
135
root 6.90653 16.3689 -1.14188 6.63343 -34.0011 3.6345
lowerback -6.49185 3.40369 -0.78575
upperback -5.89082 4.48532 -1.49018
thorax -2.39144 2.21934 -0.90176
lowerneck 5.14626 11.4292 11.3143
upperneck 13.2404 16.8137 -10.4904
head 4.99347 8.44456 -4.35106
rclavicle 7.03201e-015 -5.01931e-015
rhumerus -47.0909 -15.6633 -75.3964
rradius 31.2536
rwrist 7.36709
rhand -10.9391 -48.9787
rfingers 7.12502
rthumb 15.0791 -78.4095
lclavicle 7.03201e-015 -5.01931e-015
lhumerus -53.216 10.546 74.8998
lradius 36.2798
lwrist -15.1404
lhand -21.3987 -13.0213
lfingers 7.12502
lthumb 4.98936 16.9
rfemur 0.965368 -8.60117 26.155
rtibia 8.02822
rfoot -29.2609 -38.1812
rtoes 35.9722
lfemur -20.752 -16.3992 -14.1964
ltibia 15.2122
lfoot -2.56662 6.7419
ltoes 7.35972
136
root 6.90645 16.3758 -1.0898 6.63073 -33.4998 3.65252
lowerback -6.55347 3.48561 -0.83184
upperback -5.96138 4.59495 -1.55162
thorax -2.42875 2.27455 -0.933568
lowerneck 5.18607 11.2764 11.6241
upperneck 13.3188 16.6357 -10.5678
head 5.02284 8.37071 -4.43459
rclavicle 4.49999e-014 2.45499e-014
rhumerus -47.4212 -15.9543 -75.2971
rradius 31.2842
rwrist 7.43512
rhand -10.894 -48.7102
rfingers 7.12502
rthumb 15.1226 -78.1377
lclavicle 4.49999e-014 2.45499e-014
lhumerus -53.0981 10.4213 74.9789
lradius 36.2379
lwrist -15.1968
lhand -21.5222 -12.9593
lfingers 7.12502
lthumb 4.87013 16.9647
rfemur 1.24312 -9.03846 26.0127
rtibia 7.93756
rfoot -29.0358 -37.9181
rtoes 35.2025
lfemur -20.6054 -16.4879 -14.3863
ltibia 15.0534
lfoot -2.77597 6.31342
ltoes 8.9976
137
root 6.91237 16.3775 -1.03651 6.721 -32.9849 3.69479
lowerback -6.7747 3.21978 -1.0202
upperback -5.90869 4.25726 -1.26508
thorax -2.29006 2.11738 -0.534681
lowerneck 5.04456 11.5177 11.0027
upperneck 13.2166 16.9418 -10.6256
head 5.00137 8.48645 -4.33138
rclavicle -3.6154e-015 -7.55382e-015
rhumerus -47.0662 -15.1114 -75.4074
rradius 31.1786
rwrist 7.47188
rhand -10.9257 -48.3941
rfingers 7.12502
rthumb 15.0921 -77.824
lclavicle -3.6154e-015 -7.55382e-015
lhumerus -53.0802 11.5966 74.9393
lradius 36.2353
lwrist -15.3746
lhand -21.5938 -12.5331
lfingers 7.12502
lthumb 4.80097 17.3925
rfemur 1.38277 -9.48199 25.8427
rtibia 7.88082
rfoot -29.0895 -37.5423
rtoes 35.3305
lfemur -20.571 -16.7931 -14.5447
ltibia 14.8527
lfoot -2.80422 6.0678
ltoes 8.11381
138
root 6.91946 16.3794 -0.985944 6.7983 -32.4282 3.70128
lowerback -7.03737 2.66855 -1.35784
upperback -5.65396 3.55649 -0.640892
thorax -1.94128 1.78829 0.283037
lowerneck 4.47694 12.1679 9.56074
upperneck 13.1061 17.7473 -10.5573
head 5.01775 8.79911 -4.00516
rclavicle -1.22427e-013 -2.28602e-014
rhumerus -46.0502 -13.549 -75.5869
rradius 30.8558
rwrist 7.48045
rhand -11.3179 -48.1973
rfingers 7.12502
rthumb 14.7142 -77.6551
lclavicle -1.22427e-013 -2.28602e-014
lhumerus -53.0198 13.5868 74.9784
lradius 36.3067
lwrist -15.6083
lhand -21.4618 -12.2794
lfingers 7.12502
lthumb 4.92848 17.6433
rfemur 1.538 -9.96655 25.7149
rtibia 7.84812
rfoot -29.1357 -37.0984
rtoes 36.0138
lfemur -20.4928 -17.1387 -14.6362
ltibia 14.609
lfoot -2.8375 5.74319
ltoes 7.63528
139
root 6.92801 16.3851 -0.936634 6.74921 -31.7551 3.71642
lowerback -7.09985 2.27066 -1.48368
upperback -5.47864 3.04192 -0.304413
thorax -1.74185 1.53951 0.680608
lowerneck 4.10065 12.6271 8.57464
upperneck 13.0371 18.2984 -10.2809
head 5.00237 9.02368 -3.71639
rclavicle -1.05207e-013 -1.15295e-014
rhumerus -45.4617 -12.651 -75.7735
rradius 30.6062
rwrist 7.45286
rhand -11.3233 -48.3059
rfingers 7.12502
rthumb 14.709 -77.7641
lclavicle -1.05207e-013 -1.15295e-014
lhumerus -53.0356 14.684 74.9517
lradius 36.4787
lwrist -15.821
lhand -21.2096 -12.7062
lfingers 7.12502
lthumb 5.17192 17.2107
rfemur 1.82459 -10.5784 25.5668
rtibia 7.82822
rfoot -29.2269 -36.6458
rtoes 36.3969
lfemur -20.2923 -17.2196 -14.8681
ltibia 14.3629
lfoot -2.80502 5.14607
ltoes 7.68438
140
root 6.93651 16.3942 -0.88562 6.71398 -31.0711 3.69738
lowerback -7.11209 2.15946 -1.4312
upperback -5.45799 2.89301 -0.290814
thorax -1.70802 1.46381 0.658731
lowerneck 4.16006 12.6818 8.5356
upperneck 12.9413 18.3549 -10.1757
head 4.95585 9.05906 -3.68195
rclavicle 1.55052e-014 7.55382e-015
rhumerus -45.4786 -12.4327 -75.9365
rradius 30.5399
rwrist 7.41014
rhand -10.9381 -48.2909
rfingers 7.12502
rthumb 15.0802 -77.7216
lclavicle 1.55052e-014 7.55382e-015
lhumerus -53.0253 14.7151 75.0204
lradius 36.6583
lwrist -15.8234
lhand -21.3569 -13.1529
lfingers 7.12502
lthumb 5.02979 16.7674
rfemur 2.1784 -11.1956 25.4252
rtibia 7.68959
rfoot -29.2797 -36.3142
rtoes 36.6762
lfemur -20.1174 -17.2727 -15.1086
ltibia 14.1907
lfoot -2.81195 4.56205
ltoes 7.64096
